<?xml version="1.0" encoding="iso-8859-1"?>
<!-- Generator: Adobe Illustrator 19.0.0, SVG Export Plug-In . SVG Version: 6.00 Build 0)  -->
<svg xmlns="http://www.w3.org/2000/svg" xmlns:xlink="http://www.w3.org/1999/xlink" version="1.1" id="Capa_1" x="0px" y="0px" viewBox="0 0 512 512" style="enable-background:new 0 0 512 512;" xml:space="preserve" width="512px" height="512px">
<g>
	<g>
		<path d="M69.709,0v60.048H39.674v30h30.035v30.317H39.674v30h30.035v30.317H39.674v30h30.035V241H39.674v30h30.035v30.317H39.674    v30h30.035v30.317H39.674v30h30.035v30.317H39.674v30h30.035V512h402.617V0H69.709z M286.018,350.898v30.566h-30v-30.566    c-26.882-3.696-47.658-26.803-47.658-54.684h30c0,13.903,11.311,25.214,25.214,25.214h14.89c13.903,0,25.214-11.311,25.214-25.214    c0-13.903-11.312-25.214-25.215-25.214h-14.89c-30.445,0-55.214-24.769-55.214-55.214c0-27.881,20.777-50.987,47.658-54.684    v-30.566h30v30.566c26.882,3.696,47.659,26.802,47.659,54.684h-30c0-13.903-11.311-25.214-25.214-25.214h-14.89    c-13.903,0-25.214,11.311-25.214,25.214c0,13.903,11.312,25.214,25.215,25.214h14.89c30.445,0,55.214,24.769,55.214,55.214    C333.677,324.096,312.9,347.201,286.018,350.898z" fill="#FFFFFF"/>
	</g>
</g>
<g>
</g>
<g>
</g>
<g>
</g>
<g>
</g>
<g>
</g>
<g>
</g>
<g>
</g>
<g>
</g>
<g>
</g>
<g>
</g>
<g>
</g>
<g>
</g>
<g>
</g>
<g>
</g>
<g>
</g>
</svg>
